<svg xmlns="http://www.w3.org/2000/svg" viewBox="0 0 256 320" width="31.88" height="40" aria-hidden="true" role="img">
  <!-- Shield background -->
  <defs>
    <linearGradient id="gShield" x1="0" x2="0" y1="0" y2="1">
      <stop offset="0" stop-color="#FFE755"/>
      <stop offset="1" stop-color="#FFD400"/>
    </linearGradient>
  </defs>

  <!-- Shield shape -->
  <path d="M128 8
           C196 8 236 44 236 96
           V198
           C236 242 190 292 128 312
           C66 292 20 242 20 198
           V96
           C20 44 60 8 128 8 Z"
        fill="url(#gShield)" stroke="#b28b00" stroke-width="3"/>

  <!-- Top stripe: green-white-red -->
  <g transform="translate(36,22)">
    <rect x="0" y="0" width="164" height="18" rx="4" />
    <rect x="0" y="0" width="54.666" height="18" rx="4" fill="#008C45"/>
    <rect x="54.666" y="0" width="54.666" height="18" rx="0" fill="#FFFFFF"/>
    <rect x="109.332" y="0" width="54.666" height="18" rx="4" fill="#CD2A3E"/>
  </g>

  <!-- Stylized prancing horse (simplified silhouette) -->
  <g transform="translate(30,70) scale(0.9)">
    <path d="M110 20
             c-6 0 -18 6 -28 18
             c-10 12 -24 30 -36 36
             c-6 3 -12 2 -18 6
             c-6 4 -8 11 -6 18
             c2 6 10 12 18 10
             c8 -2 20 -8 34 -14
             c14 -6 30 -10 42 -6
             c12 4 18 14 18 22
             c0 8 -6 16 -16 20
             c-10 4 -28 6 -40 14
             c-12 8 -18 22 -10 30
             c8 8 26 6 40 2
             c14 -4 36 -14 50 -26
             c14 -12 30 -32 32 -52
             c2 -20 -6 -46 -22 -64
             c-16 -18 -46 -36 -72 -36 Z"
          fill="#000" transform="translate(-20,0)"/>
    <!-- front legs suggestion -->
    <path d="M40 170 c10 -18 30 -34 50 -36" stroke="#000" stroke-width="8" stroke-linecap="round" fill="none"/>
    <path d="M80 172 c12 -22 34 -40 56 -44" stroke="#000" stroke-width="8" stroke-linecap="round" fill="none"/>
  </g>
</svg>
